<?xml version="1.0" encoding="utf-8"?>
<!-- Generator: Adobe Illustrator 16.0.0, SVG Export Plug-In . SVG Version: 6.00 Build 0)  -->
<!DOCTYPE svg PUBLIC "-//W3C//DTD SVG 1.1//EN" "http://www.w3.org/Graphics/SVG/1.1/DTD/svg11.dtd">
<svg version="1.1" id="Layer_1" xmlns="http://www.w3.org/2000/svg" xmlns:xlink="http://www.w3.org/1999/xlink" x="0px" y="0px"
	 width="128px" height="128px" viewBox="0 0 128 128" enable-background="new 0 0 128 128" xml:space="preserve">
<g>
	<path fill="#FFFFFF" d="M77.253,45.915c0.41,0.467,1.128,0.518,1.602,0.104c0.466-0.411,0.516-1.129,0.101-1.6l-8.435-9.64
		c-0.416-0.474-1.132-0.517-1.604-0.108c-0.468,0.411-0.518,1.127-0.104,1.601L77.253,45.915z"/>
	<path fill="#FFFFFF" d="M91.723,40.343c0.623-0.005,1.128-0.513,1.124-1.14L92.754,26.39c-0.002-0.631-0.517-1.131-1.143-1.126
		c-0.619,0.005-1.128,0.511-1.124,1.144l0.093,12.81C90.582,39.843,91.095,40.348,91.723,40.343z"/>
	<path fill="#FFFFFF" d="M120.882,74.025l-11.339-5.964c-0.556-0.293-1.241-0.079-1.534,0.475c-0.291,0.552-0.076,1.237,0.479,1.528
		l11.335,5.969c0.559,0.287,1.247,0.078,1.534-0.482C121.653,75.004,121.443,74.315,120.882,74.025z"/>
	<path fill="#FFFFFF" d="M123.544,52.496l-12.722,1.488c-0.623,0.076-1.066,0.64-0.992,1.262c0.067,0.623,0.632,1.065,1.255,0.992
		l12.727-1.485c0.623-0.075,1.068-0.632,0.992-1.26C124.734,52.875,124.172,52.426,123.544,52.496z"/>
	<path fill="#FFFFFF" d="M98.479,76.083c-0.209-0.589-0.857-0.904-1.448-0.689c-0.591,0.204-0.898,0.852-0.693,1.443l4.263,12.088
		c0.209,0.591,0.855,0.897,1.444,0.69c0.595-0.208,0.902-0.859,0.688-1.447L98.479,76.083z"/>
	<path fill="#FFFFFF" d="M104.827,44.734l7.891-10.099c0.386-0.493,0.296-1.206-0.194-1.592c-0.494-0.384-1.208-0.296-1.594,0.199
		l-7.889,10.101c-0.386,0.491-0.298,1.204,0.196,1.59C103.731,45.315,104.443,45.224,104.827,44.734z"/>
	<path fill="#FFFFFF" d="M91.665,41.921c-9.21,0-16.701,7.494-16.701,16.703c0,0.975,0.101,1.926,0.263,2.855
		c1.339,0.071,2.632,0.313,3.852,0.719c-0.323-1.139-0.508-2.334-0.508-3.574c0-7.222,5.874-13.096,13.095-13.096
		c7.222,0,13.099,5.875,13.099,13.096c0,7.22-5.877,13.096-13.099,13.096c-1.163,0-2.287-0.167-3.362-0.453
		c0.431,1.216,0.701,2.503,0.796,3.841c0.839,0.13,1.692,0.219,2.566,0.219c9.209,0,16.705-7.494,16.705-16.702
		C108.37,49.415,100.874,41.921,91.665,41.921z"/>
	<path fill="#FFFFFF" d="M89.104,77.367c0.033-0.397,0.048-0.801,0.048-1.207c0-0.349-0.029-0.69-0.054-1.034
		c-0.095-1.339-0.365-2.625-0.796-3.841c-1.508-4.269-4.923-7.636-9.225-9.069c-1.22-0.406-2.513-0.648-3.852-0.719
		c-0.261-0.013-0.516-0.039-0.777-0.039c-2.725,0-5.331,0.736-7.604,2.118c-0.424-2.354-1.363-4.527-2.673-6.435l7.927,0.646
		c0.63,0.053,1.173-0.417,1.225-1.041c0.051-0.617-0.413-1.168-1.038-1.218l-10.148-0.831c-3.376-3.366-8.149-5.374-13.322-5.093
		c-8.488,0.424-15.224,6.607-16.385,14.561c-1.506-0.525-3.057-0.788-4.636-0.788c-8.11,0-14.705,6.597-14.705,14.706
		c0,0.15,0.004,0.297,0.017,0.453C9,79.66,3.179,82.058,3.188,90.419c0.008,6.654,5.912,12.07,13.161,12.07l0.697-0.016
		c4.511-0.224,23.195,0.016,23.195,0.012l0.004-0.309c0.033,0.005,0.066,0.01,0.099,0.014l0.012,0.295l-0.004-0.292
		c2.484,0.335,8.238,0.347,21.618,0.373c0,0,10.074,0.17,17.372,0.17c0.004,0,0.009,0,0.013,0c2.74,0,5.095-0.023,6.397-0.091
		c3.465-0.17,6.681-1.845,9.054-4.71c2.238-2.697,3.424-6.146,3.26-9.458C97.806,83.306,94.21,78.942,89.104,77.367z M92.03,95.635
		c-1.724,2.077-4.017,3.288-6.458,3.411c-1.268,0.063-3.557,0.084-6.219,0.084c-0.004,0-0.009,0-0.013,0
		c-7.273,0-17.306-0.169-17.337-0.169c-8.342-0.017-20.996-0.049-21.657-0.075l-0.045,0.815l-0.014-0.82c0,0-8.64-0.109-15.62-0.109
		c-3.354,0-6.328,0.025-7.803,0.101l-0.517,0.012c-5.261,0-9.55-3.799-9.555-8.47c-0.004-5.561,3.04-7.368,8.665-8.758l1.273-0.541
		l0.117-1.279l-0.062-0.786c-0.043-0.319-0.092-0.636-0.092-0.966c0-6.121,4.978-11.1,11.099-11.1c1.846,0,3.659,0.491,5.384,1.461
		l2.738,1.534l-0.053-3.138c-0.123-7.272,5.645-13.263,13.132-13.634l0.73-0.019c3.331,0,6.385,1.15,8.773,3.061
		c0.117,0.17,0.273,0.307,0.468,0.393c2.625,2.3,4.34,5.566,4.522,9.255c0.015,0.256,0,0.507-0.032,1.159l-0.175,4.648l3.26-3.317
		c2.108-2.144,4.914-3.324,7.907-3.324c0.646,0,1.27,0.084,1.887,0.19c4.542,0.786,8.144,4.319,9.003,8.837
		c0.127,0.673,0.209,1.361,0.209,2.069c0,0.759-0.082,1.498-0.228,2.214l-0.367,1.814l1.823,0.319
		c4.326,0.762,7.485,4.113,7.686,8.147C94.586,91.078,93.695,93.623,92.03,95.635z"/>
</g>
</svg>
