<?xml version="1.0" encoding="utf-8"?>
<!-- Generator: Adobe Illustrator 16.0.0, SVG Export Plug-In . SVG Version: 6.00 Build 0)  -->
<!DOCTYPE svg PUBLIC "-//W3C//DTD SVG 1.1//EN" "http://www.w3.org/Graphics/SVG/1.1/DTD/svg11.dtd">
<svg version="1.1" id="Layer_1" xmlns="http://www.w3.org/2000/svg" xmlns:xlink="http://www.w3.org/1999/xlink" x="0px" y="0px"
	 width="128px" height="128px" viewBox="0 0 128 128" enable-background="new 0 0 128 128" xml:space="preserve">
<g>
	<path fill="#31535B" d="M64.188,92.712c-14.773,0-26.79-12.018-26.79-26.791c0-14.773,12.016-26.791,26.79-26.791
		c14.776,0,26.792,12.018,26.792,26.791C90.98,80.694,78.965,92.712,64.188,92.712z M64.188,43.805
		c-12.194,0-22.115,9.919-22.115,22.116c0,12.197,9.92,22.116,22.115,22.116c12.199,0,22.117-9.919,22.117-22.116
		C86.306,53.724,76.388,43.805,64.188,43.805z"/>
	<g>
		<path fill="#31535B" d="M43.332,42.575c0.675,0.776,0.601,1.95-0.17,2.627l0,0c-0.782,0.681-1.957,0.598-2.627-0.173
			L26.681,29.205c-0.675-0.779-0.596-1.953,0.173-2.623l0,0c0.774-0.677,1.955-0.606,2.63,0.173L43.332,42.575z"/>
	</g>
	<g>
		<path fill="#31535B" d="M66.124,34.019c0.011,1.025-0.818,1.864-1.845,1.872l0,0c-1.029,0.006-1.867-0.815-1.875-1.851
			l-0.149-21.025c-0.008-1.034,0.821-1.868,1.843-1.875l0,0c1.032-0.004,1.867,0.815,1.877,1.852L66.124,34.019z"/>
	</g>
	<g>
		<path fill="#31535B" d="M32.382,60.81c1.029,0.085,1.781,0.984,1.704,2.004l0,0c-0.085,1.025-0.976,1.787-2.007,1.708
			l-20.958-1.708c-1.026-0.086-1.795-0.986-1.702-2.004l0,0c0.08-1.026,0.974-1.786,2.008-1.714L32.382,60.81z"/>
	</g>
	<g>
		<path fill="#31535B" d="M35.758,80.729c0.873-0.552,2.021-0.29,2.569,0.577l0,0c0.548,0.864,0.292,2.019-0.58,2.57L19.972,95.109
			c-0.875,0.554-2.023,0.294-2.566-0.575l0,0c-0.553-0.87-0.292-2.019,0.58-2.568L35.758,80.729z"/>
	</g>
	<g>
		<path fill="#31535B" d="M51.638,94.586c0.367-0.967,1.438-1.449,2.398-1.087l0,0c0.958,0.362,1.447,1.432,1.09,2.402
			l-7.411,19.678c-0.37,0.963-1.438,1.448-2.39,1.083l0,0c-0.976-0.362-1.457-1.433-1.096-2.398L51.638,94.586z"/>
	</g>
	<g>
		<path fill="#31535B" d="M91.799,84.668c-0.914-0.479-1.263-1.601-0.781-2.51l0,0c0.474-0.909,1.601-1.264,2.513-0.779l18.61,9.782
			c0.914,0.485,1.263,1.611,0.778,2.509l0,0c-0.476,0.919-1.598,1.262-2.517,0.787L91.799,84.668z"/>
	</g>
	<g>
		<path fill="#31535B" d="M96.059,61.977c-1.021,0.119-1.946-0.612-2.063-1.626l0,0c-0.123-1.021,0.605-1.952,1.632-2.07
			l20.884-2.442c1.026-0.117,1.951,0.613,2.063,1.629l0,0c0.125,1.029-0.606,1.948-1.633,2.074L96.059,61.977z"/>
	</g>
	<g>
		<path fill="#31535B" d="M82.354,114.377c0.346,0.968-0.159,2.032-1.133,2.38l0,0c-0.973,0.334-2.031-0.167-2.371-1.138
			l-6.993-19.838c-0.341-0.965,0.17-2.033,1.135-2.37l0,0c0.971-0.345,2.034,0.16,2.375,1.135L82.354,114.377z"/>
	</g>
	<g>
		<path fill="#31535B" d="M85.795,43.092c-0.638,0.813-1.797,0.958-2.613,0.328l0,0c-0.812-0.634-0.952-1.8-0.321-2.609
			L95.81,24.232c0.632-0.81,1.803-0.958,2.61-0.323l0,0c0.809,0.63,0.952,1.803,0.316,2.618L85.795,43.092z"/>
	</g>
</g>
</svg>
