<?xml version="1.0" encoding="utf-8"?>
<!-- Generator: Adobe Illustrator 16.0.0, SVG Export Plug-In . SVG Version: 6.00 Build 0)  -->
<!DOCTYPE svg PUBLIC "-//W3C//DTD SVG 1.1//EN" "http://www.w3.org/Graphics/SVG/1.1/DTD/svg11.dtd">
<svg version="1.1" id="Layer_1" xmlns="http://www.w3.org/2000/svg" xmlns:xlink="http://www.w3.org/1999/xlink" x="0px" y="0px"
	 width="120px" height="100px" viewBox="0 0 120 100" enable-background="new 0 0 120 100" xml:space="preserve">
<g>
	<path fill="#F7F7F7" d="M36.711,69.688c0.743,0.858,2.044,0.954,2.902,0.207c0.861-0.749,0.942-2.047,0.203-2.906l-15.24-17.545
		c-0.753-0.865-2.054-0.945-2.915-0.203c-0.854,0.738-0.945,2.037-0.197,2.9L36.711,69.688z"/>
	<path fill="#F7F7F7" d="M59.945,63.104c1.132,0.01,2.062-0.904,2.064-2.047l0.098-23.238c0.006-1.152-0.911-2.067-2.053-2.072
		c-1.129-0.005-2.054,0.904-2.062,2.046l-0.094,23.245C57.89,62.18,58.804,63.098,59.945,63.104z"/>
	<path fill="#F7F7F7" d="M3.19,81.534l22.745,4.77c1.116,0.227,2.202-0.485,2.435-1.597c0.228-1.096-0.475-2.198-1.589-2.436
		L4.034,77.503c-1.122-0.228-2.205,0.485-2.439,1.596C1.353,80.211,2.066,81.297,3.19,81.534z"/>
	<path fill="#F7F7F7" d="M90.692,84.696c0.228,1.102,1.319,1.814,2.431,1.582l22.762-4.729c1.111-0.232,1.831-1.318,1.587-2.43
		c-0.221-1.105-1.313-1.824-2.429-1.591l-22.751,4.729C91.175,82.484,90.453,83.575,90.692,84.696z"/>
	<path fill="#F7F7F7" d="M82.584,69.116l16.717-16.151c0.816-0.784,0.84-2.092,0.048-2.911c-0.79-0.818-2.088-0.833-2.907-0.045
		L79.722,66.17c-0.815,0.787-0.836,2.086-0.047,2.9C80.467,69.895,81.761,69.909,82.584,69.116z"/>
	<path fill="#F7F7F7" d="M89.215,95.559c-0.401-15.782-13.338-28.51-29.214-28.51c-15.879,0-28.81,12.728-29.211,28.51H1.546V100
		h29.496h55.839h31.573v-4.441H89.215z M60.001,71.491c13.267,0,24.134,10.468,24.73,24.067H35.205
		C35.6,82.222,46.572,71.491,60.001,71.491z"/>
</g>
</svg>
