<?xml version="1.0" encoding="utf-8"?>
<!-- Generator: Adobe Illustrator 16.0.0, SVG Export Plug-In . SVG Version: 6.00 Build 0)  -->
<!DOCTYPE svg PUBLIC "-//W3C//DTD SVG 1.1//EN" "http://www.w3.org/Graphics/SVG/1.1/DTD/svg11.dtd">
<svg version="1.1" id="Layer_1" xmlns="http://www.w3.org/2000/svg" xmlns:xlink="http://www.w3.org/1999/xlink" x="0px" y="0px"
	 width="120px" height="100px" viewBox="0 0 120 100" enable-background="new 0 0 120 100" xml:space="preserve">
<g>
	<path fill="#F7F7F7" d="M116.826,77.674c-2.418-2.276-5.793-2.986-8.633-1.803c-2.997,1.244-4.748,3.73-4.665,6.634
		c0.058,2.434,1.395,4.593,3.23,5.255c1.379,0.484,2.828,0.062,3.873-1.143l-2.679-2.179c-0.249-0.084-0.847-0.859-0.896-1.99
		c-0.041-1.022,0.369-2.424,2.504-3.325c1.528-0.642,3.438-0.203,4.848,1.114c1.906,1.805,2.407,4.691,1.335,7.735
		c-1.552,4.41-5.084,3.742-14.078,0.896c-9.437-2.996-22.369-7.098-33.187,3.253c-3.164,3.027-10.119,4.41-18.653,3.648
		c-7.127-0.625-14.561-1.918-20.656-7.119c-6.381-5.435-12.634-7.579-17.557-8.329c4.363-0.6,9.84-0.287,15.647,2.662
		c8.579,4.348,18.904,8.444,27.434,8.444c4.845,0,9.105-1.322,12.136-4.665c6.683-7.358,14.685-6.547,21.723-5.833
		c6.278,0.659,12.767,1.304,14.986-5.763c1.205-3.852,0.357-7.448-2.309-9.888c-2.789-2.543-7.208-3.377-10.516-1.99
		c-3.759,1.568-4.096,4.133-4.067,5.164c0.055,2.112,1.581,4.103,3.708,4.874c1.827,0.637,3.667,0.197,4.882-1.214l-2.672-2.31
		c-0.123,0.13-0.361,0.417-1.014,0.188c-0.73-0.255-1.359-1.006-1.373-1.637c-0.024-0.906,1.326-1.563,1.902-1.809
		c2.063-0.854,4.975-0.287,6.76,1.345c1.167,1.059,2.335,2.997,1.321,6.218c-1.293,4.149-4.581,3.998-11.256,3.314
		c-7.103-0.72-16.818-1.729-24.692,6.969c-7.242,7.979-25.25,0.574-35.348-4.561c-4.032-2.048-7.912-2.956-11.457-3.208
		c3.463-0.133,7.305,0.459,11.347,2.427c7.174,3.492,13.184,4.502,18.047,4.268c7.091-0.338,11.725-3.347,13.946-5.211
		c3.434-2.878,3.351-7.74,1.552-10.867c-1.586-2.7-4.954-4.957-9.67-3.206c-2.989,1.105-3.87,3.982-3.194,6.245
		c0.682,2.324,3.069,4.315,6.875,3.444l-0.631-2.799c-2.101,0.454-3.184-0.453-3.485-1.47c-0.286-0.942,0.048-2.204,1.439-2.721
		c3.713-1.401,5.559,0.907,6.161,1.96c1.25,2.132,1.25,5.415-0.896,7.217c-3.301,2.769-12.738,8.403-28.88,0.549
		C13.841,68.6,0.29,80.07,0.159,80.191l0.186,0.212c-0.078,0.048-0.159,0.094-0.186,0.111l1.681,2.701v0.363
		c0.469-0.131,13.228-1.96,25.034,7.767c6.948,5.736,14.941,7.265,22.645,7.942c1.637,0.146,3.224,0.208,4.751,0.208
		c7.441,0,13.373-1.688,16.654-4.826c9.317-8.897,20.137-5.451,29.675-2.429c7.7,2.429,15.657,4.974,18.483-3.092
		C120.625,84.751,119.788,80.451,116.826,77.674z"/>
	<path fill="#F7F7F7" d="M36.443,67.202c0.087-0.083,0.178-0.188,0.269-0.292c-1.793,0.037-4.368-1.219-6.229-3.054
		c-2.995-2.944-4.782-7.035-4.305-6.379c1.717,2.375,3.208,4.508,5.173,5.967c2.553,1.903,5.598,2.444,6.014,2.649
		c1.848-2.69,2.507-7.021-1.657-9.248c-1.911-0.959-3.902,0.757-6.284-0.36c-2.486-0.938-4.234-3.406-3.917-6.43l-0.175-0.173
		c-0.896,3.039-2.272,10.607-0.805,13.917C27.069,69.767,33.238,70.293,36.443,67.202z"/>
</g>
</svg>
